<svg xmlns="http://www.w3.org/2000/svg" version="1.1" xmlns:xlink="http://www.w3.org/1999/xlink" xmlns:svgjs="http://svgjs.com/svgjs" id="Pattern1649SvgRootPreview" width="100%" height="100%"><defs><pattern x="0" y="0" width="1" height="1" patternUnits="userSpaceOnUse" id="Pattern1649Layer1"><g id="PatternRootContent1"><g id="Pattern1649Layer1background"><rect width="1" height="1" id="Pattern1649Background1" class="color_1 fill_color_1" fill="#627e8f"></rect></g></g></pattern><pattern x="0" y="0" width="133" height="230" patternUnits="userSpaceOnUse" id="Pattern1649Layer2" patternTransform="matrix(0.5,0,0,0.5,0,0)"><g id="PatternRootContent2"><g id="Pattern1649Layer2Element3"><use xlink:href="#Pattern1649Element3" x="34.420196533203125" y="-147.5" transform="translate(133, -57.5) scale(1) translate(-133, 57.5) rotate(90, 133, -57.5)"></use><use xlink:href="#Pattern1649Element3" x="-98.57980346679688" y="-147.5" transform="translate(0, -57.5) scale(1) translate(0, 57.5) rotate(90, 0, -57.5)"></use><use xlink:href="#Pattern1649Element3" x="-32.079803466796875" y="-32.5" transform="translate(66.5, 57.5) scale(1) translate(-66.5, -57.5) rotate(90, 66.5, 57.5)"></use><use xlink:href="#Pattern1649Element3" x="-165.07980346679688" y="-32.5" transform="translate(-66.5, 57.5) scale(1) translate(66.5, -57.5) rotate(90, -66.5, 57.5)"></use><use xlink:href="#Pattern1649Element3" x="100.92019653320312" y="-32.5" transform="translate(199.5, 57.5) scale(1) translate(-199.5, -57.5) rotate(90, 199.5, 57.5)"></use><use xlink:href="#Pattern1649Element3" x="34.420196533203125" y="82.5" transform="translate(133, 172.5) scale(1) translate(-133, -172.5) rotate(90, 133, 172.5)"></use><use xlink:href="#Pattern1649Element3" x="-98.57980346679688" y="82.5" transform="translate(0, 172.5) scale(1) translate(0, -172.5) rotate(90, 0, 172.5)"></use><use xlink:href="#Pattern1649Element3" x="-32.079803466796875" y="197.5" transform="translate(66.5, 287.5) scale(1) translate(-66.5, -287.5) rotate(90, 66.5, 287.5)"></use><use xlink:href="#Pattern1649Element3" x="-32.079803466796875" y="197.5" transform="translate(66.5, 287.5) scale(1) translate(-66.5, -287.5) rotate(90, 66.5, 287.5)"></use></g></g></pattern><symbol id="Pattern1649Element3"><g class="color_4 fill_color_4" fill="#ffb0a2"><g><path d="M83.58,108.50961303710938L113.58,108.50961303710938L113.58,138.50961303710938L83.58,138.50961303710938L83.58,108.50961303710938Z"></path><path d="M139.855,154.0192413330078L124.855,180L98.874,165L113.874,139.0192413330078L139.855,154.0192413330078Z"></path><path d="M72.305,180L57.305,154.0192413330078L83.286,139.0192413330078L98.286,165L72.305,180Z"></path></g><g><path d="M75.05,86.26443481445312L90.05,112.24520111083984L64.069,127.24520111083984L49.069,101.26443481445312L75.05,86.26443481445312Z"></path><path d="M63.775,157.7548370361328L33.775,157.7548370361328L33.775,127.75462341308594L63.775,127.75462341308594L63.775,157.7548370361328Z"></path><path d="M7.5,112.24519348144531L22.5,86.2644271850586L48.481,101.26463317871094L33.481,127.24539947509766L7.5,112.24519348144531Z"></path></g><g><path d="M90.05,67.75482177734375L75.05,93.73558807373047L49.069,78.73558807373047L64.069,52.75482177734375L90.05,67.75482177734375Z"></path><path d="M22.5,93.735595703125L7.5,67.75482940673828L33.481,52.75462341308594L48.481,78.73538970947266L22.5,93.735595703125Z"></path><path d="M33.775,22.24519157409668L63.775,22.24519157409668L63.775,52.24540328979492L33.775,52.245399475097656L33.775,22.24519157409668Z"></path></g><g><path d="M113.58,71.49038696289062L83.58,71.49038696289062L83.58,41.490386962890625L113.58,41.490386962890625L113.58,71.49038696289062Z"></path><path d="M57.305,25.98076629638672L72.305,-2.2737367544323206e-13L98.286,15.000003814697266L83.286,40.98076629638672L57.305,25.98076629638672Z"></path><path d="M124.855,-2.2737367544323206e-13L139.855,25.98076629638672L113.874,40.98076629638672L98.874,15.000003814697266L124.855,-2.2737367544323206e-13Z"></path></g><g><path d="M122.11,93.7355728149414L107.11,67.75480651855469L133.09,52.75480651855469L148.09,78.7355728149414L122.11,93.7355728149414Z"></path><path d="M133.385,22.24517250061035L163.385,22.24517250061035L163.385,52.245384216308594L133.385,52.245384216308594L133.385,22.24517250061035Z"></path><path d="M189.66,67.75481414794922L174.66,93.73558044433594L148.679,78.73536682128906L163.679,52.754608154296875L189.66,67.75481414794922Z"></path></g><g><path d="M107.11,112.24518585205078L122.11,86.26441955566406L148.09,101.26441955566406L133.09,127.24518585205078L107.11,112.24518585205078Z"></path><path d="M174.66,86.26441192626953L189.66,112.24517059326172L163.679,127.2453842163086L148.679,101.26461791992188L174.66,86.26441192626953Z"></path><path d="M163.385,157.7548065185547L133.385,157.7548065185547L133.385,127.75460815429688L163.385,127.75460815429688L163.385,157.7548065185547Z"></path></g></g></symbol></defs><rect width="100%" height="100%" id="Pattern1649RctLayer1" fill="url(#Pattern1649Layer1)"></rect><rect width="100%" height="100%" id="Pattern1649RctLayer2" fill="url(#Pattern1649Layer2)"></rect></svg>